<?xml version="1.0" encoding="UTF-8"?> <svg xmlns="http://www.w3.org/2000/svg" id="Isolation_Mode" data-name="Isolation Mode" width="907.5" height="204.8333" viewBox="0 0 907.5 204.8333" preserveAspectRatio="xMidYMid meet"> <defs> <style>.cls-1{fill:#f68838;}.cls-2{fill:#414143;}.cls-3{fill:#54799c;}</style> </defs> <title>FMTC Logo</title> <rect class="cls-1" x="789.5" width="35.3333" height="35.3333" rx="10" ry="10"></rect> <rect class="cls-2" x="789.5" y="42" width="35.3333" height="35.3333" rx="10" ry="10"></rect> <rect class="cls-2" x="789.5" y="84.6667" width="35.3333" height="35.3333" rx="10" ry="10"></rect> <rect class="cls-1" x="830.1667" y="84.6667" width="35.3333" height="35.3333" rx="10" ry="10"></rect> <rect class="cls-2" x="872.1667" y="84.6667" width="35.3333" height="35.3333" rx="10" ry="10"></rect> <rect class="cls-3" x="830.1667" y="42" width="35.3333" height="35.3333" rx="10" ry="10"></rect> <rect class="cls-3" x="789.1667" y="169" width="35.3333" height="35.3333" rx="10" ry="10"></rect> <rect class="cls-2" x="830" y="126.8333" width="35.3333" height="35.3333" rx="10" ry="10"></rect> <rect class="cls-1" x="789.6667" y="126.8333" width="35.3333" height="35.3333" rx="10" ry="10"></rect> <path class="cls-2" d="M14.2746,22.4968V213.0386a6.3992,6.3992,0,0,0,6.3992,6.3992H59.3754a6.3992,6.3992,0,0,0,6.3992-6.3992V150.837c0-3.5342-.135-3.3992,3.3992-3.3992h70.5349a6.3992,6.3992,0,0,0,6.3992-6.3992V109.0037a6.3992,6.3992,0,0,0-6.3992-6.3992H69.1738c-3.5342,0-3.3992.135-3.3992-3.3992V69.0037c0-3.5342-.135-3.3992,3.3992-3.3992h94.0349a6.3992,6.3992,0,0,0,6.3992-6.3992V22.3439a6.3992,6.3992,0,0,0-6.406-6.3992l-142.535.1529A6.3992,6.3992,0,0,0,14.2746,22.4968Z" transform="translate(-14.2746 -14.6045)"></path> <path class="cls-2" d="M192.9413,20.3967v193.201a5.1734,5.1734,0,0,0,5.1734,5.1734h39.9031a5.1735,5.1735,0,0,0,5.1735-5.1734V113.6461c0-5.6683,7.8023,17.5989,9.9581,22.8413l32.7236,79.5779a5.1733,5.1733,0,0,0,4.7846,3.2058h37.07a5.1733,5.1733,0,0,0,4.783-3.2019l32.7238-79.3923c2.1592-5.2384,9.9565-27.0717,9.9565-21.4058v98.8266a5.1734,5.1734,0,0,0,5.1734,5.1734h40.1531a5.1735,5.1735,0,0,0,5.1735-5.1734V19.9446a5.1736,5.1736,0,0,0-5.1735-5.1735H374.1913a5.1736,5.1736,0,0,0-4.7617,3.1508L311.1913,152.0211c-1.7687,4.1638-2.0384,4.2593-3.875.125L248.07,17.8756a5.1736,5.1736,0,0,0-4.776-3.0729l-45.2278.4208A5.1734,5.1734,0,0,0,192.9413,20.3967Z" transform="translate(-14.2746 -14.6045)"></path> <path class="cls-2" d="M447.9413,20.8776V58.6748a6.0963,6.0963,0,0,0,6.0963,6.0963h40.8073a6.0965,6.0965,0,0,1,6.0964,6.0964V212.4248a6.0963,6.0963,0,0,0,6.0963,6.0963h38.3073a6.0964,6.0964,0,0,0,6.0964-6.0963V70.3675a6.0964,6.0964,0,0,1,6.0963-6.0964h40.3073a6.0964,6.0964,0,0,0,6.0964-6.0963V21.1078a6.0916,6.0916,0,0,0-6.081-6.0964c-24.8939-.04-118.8873-.19-143.82-.23A6.09,6.09,0,0,0,447.9413,20.8776Z" transform="translate(-14.2746 -14.6045)"></path> <path class="cls-2" d="M626.4413,48.4394V185.4739a33.5471,33.5471,0,0,0,33.5472,33.5472H774.8094a6.6318,6.6318,0,0,0,6.6319-6.6318V175.7711a6.6319,6.6319,0,0,0-6.6319-6.6318H683.3231a6.6318,6.6318,0,0,1-6.6318-6.6318V70.903a6.6318,6.6318,0,0,1,6.6318-6.6319h91.7363a6.6318,6.6318,0,0,0,6.6319-6.6318V21.653a6.6319,6.6319,0,0,0-6.6319-6.6319H659.86A33.4183,33.4183,0,0,0,626.4413,48.4394Z" transform="translate(-14.2746 -14.6045)"></path> </svg> 